<svg width="400" height="400" viewbox = "0 0 400 400"  xmlns="http://www.w3.org/2000/svg">

<!--
<topfunctions>






function YofX(){
//foobar foobar
    X = plotparams.g*(x - plotparams.x0) - funcparams.X0;

    Y = Math.sin(X);

    y = plotparams.y0 - plotparams.G*(Y - funcparams.Y0);
}





function plotfunction(){
    
    /*plot one function:*/
    currentStroke = "blue";
    currentLineWidth = 4;
    ctx.strokeStyle = currentStroke;
    ctx.lineWidth = currentLineWidth;
    ctx.beginPath();	
    x = 0;
    intx = x;
    YofX();
    currentSVG += "	<path d = \"M";
    currentSVG += Math.round(x).toString() + " ";
    currentSVG += Math.round(y).toString() + " ";
    for(x = 1;x < plotparams.plotwidth;x++){
        ctx.moveTo(x-1,y);
        YofX();
        ctx.lineTo(x,y);
        currentSVG += "L" + x + " " + y + " ";
    }
    ctx.stroke();
    currentSVG += "\""+ " stroke = \"" + currentStroke + "\" stroke-width = \"" + currentLineWidth.toString() + "\" fill = \"" + "none" + "\" "+"/>";
    /*finish plot one function*/
    
    

}





























</topfunctions>
-->

<!--
<imgurl>

</imgurl>
-->

<!--
<currentjson>
{
    "constants": {},
    "imgurl": "",
    "plotparams": {
        "G": -76.65206156253785,
        "g": 0.06277562969200853,
        "duration": 450.78888054094654,
        "plotwidth": 400,
        "plotheight": 400,
        "x0": 0,
        "y0": 200.00000000000003
    },
    "funcparams": {
        "phi": 0.2688139066614501,
        "T": 1.4465183912692552,
        "X0": 0,
        "Y0": 0
    }
}
</currentjson>
-->

<!--
<equation>
<h2>Sine</h2>
<p style="color:blue">

</p><p class="bigeq">
$$
Y = \sin{X}
$$
</p>
<p></p>

$$
X = g(x - x_0) - X_0
$$
$$
Y = f(X)
$$
    
$$
y = y_0 - G(Y - Y_0)
$$


<p>
    X and Y, and $X_0$ and $Y_0$ in physical units of the System. x and y and x0 and y0 in pixels.  G is in pixels per Y unit and g is in X units per pixel. 
</p>






</equation>
-->
	<path d = "M0 200 L1 204.80872162701718 L2 209.59849936391174 L3 214.35046394974546 L4 219.0458950879483 L5 223.66629519465923 L6 228.19346226969327 L7 232.6095616030614 L8 236.89719603455538 L9 241.0394744896119 L10 245.02007852145945 L11 248.82332659740592 L12 252.4342358760128 L13 255.8385812317847 L14 259.02295129484804 L15 261.97480128485086 L16 264.6825024309459 L17 267.135387783167 L18 269.32379423472617 L19 271.2391005896844 L20 272.8737615260305 L21 274.2213373203682 L22 275.2765192171158 L23 276.03515034227166 L24 276.4942420793609 L25 276.65198584304653 L26 276.50776020402606 L27 276.0621333371431 L28 275.31686078307075 L29 274.27487853238426 L30 272.94029145926805 L31 271.31835715042246 L32 269.4154651928763 L33 267.2391120022998 L34 264.7978712909826 L35 262.10136029181615 L36 259.16020187134274 L37 255.98598268112443 L38 252.5912075122945 L39 248.98925003311194 L40 245.19430010358622 L41 241.2213078747267 L42 237.08592489263626 L43 232.8044424394693 L44 228.39372735415847 L45 223.87115558574368 L46 219.25454374106926 L47 214.5620788965159 L48 209.81224695027336 L49 205.02375979740845 L50 200.215481614622 L51 195.40635454509444 L52 190.61532407618338 L53 185.8612644039469 L54 181.16290407851795 L55 176.53875222324888 L56 172.0070256182844 L57 167.5855769358165 L58 163.29182440973784 L59 159.1426832167578 L60 155.15449883930597 L61 151.34298267273755 L62 147.7231501305159 L63 144.30926149120592 L64 141.11476572031026 L65 138.1522474882622 L66 135.43337759329597 L67 132.96886698450442 L68 130.76842456620759 L69 128.84071894986334 L70 127.1933443041961 L71 125.83279043807804 L72 124.76441723401939 L73 123.9924335329882 L74 123.5198805537414 L75 123.34861991198689 L76 123.47932628657519 L77 123.91148476161167 L78 124.64339285496044 L79 125.67216722514826 L80 126.99375503024723 L81 128.60294989398744 L82 130.49341241620215 L83 132.6576951468038 L84 135.08727192490755 L85 137.7725714675199 L86 140.70301507547146 L87 143.86705830805116 L88 147.25223646216514 L89 150.84521367685693 L90 154.63183546974054 L91 158.597184498382 L92 162.7256393269563 L93 167.00093596667094 L94 171.40623194751683 L95 175.9241726689388 L96 180.5369597680358 L97 185.22642123595773 L98 189.97408300627427 L99 194.7612417332955 L100 199.5690384736353 L101 204.37853298074876 L102 209.17077831976334 L103 213.92689550865742 L104 218.6281478917406 L105 223.25601495244075 L106 227.79226527461452 L107 232.21902836495047 L108 236.5188650535223 L109 240.67483619514923 L110 244.67056940091678 L111 248.49032353696836 L112 252.11905073647762 L113 255.54245568050445 L114 258.74705191419963 L115 261.72021497650127 L116 264.4502321340182 L117 266.92634852317633 L118 269.1388095188496 L119 271.0788991625665 L120 272.7389744989034 L121 274.1124956847992 L122 275.19405175317246 L123 275.97938192934964 L124 276.4653924163258 L125 276.65016858273356 L126 276.53298250550625 L127 276.1142958375203 L128 275.3957579889202 L129 274.38019962929116 L130 273.0716215362763 L131 271.4751788345708 L132 269.59716068738123 L133 267.44496552035764 L134 265.027071875601 L135 262.3530050105678 L136 259.4332993734547 L137 256.2794571028902 L138 252.903902715424 L139 249.3199341593215 L140 245.5416704274868 L141 241.58399593589192 L142 237.4625018866329 L143 233.19342484661152 L144 228.7935827838127 L145 224.28030881315973 L146 219.67138291295527 L147 214.98496188091184 L148 210.239507805706 L149 205.45371533584446 L150 200.64643803236262 L151 195.83661409549126 L152 191.04319175788692 L153 186.2850546383404 L154 181.58094735002976 L155 176.9494016563856 L156 172.40866346547324 L157 167.97662095049893 L158 163.6707340796067 L159 159.5079658325841 L160 155.50471537544536 L161 151.67675345615135 L162 148.03916027597305 L163 144.60626608125486 L164 141.39159470961343 L165 138.4078103129726 L166 135.6666674673183 L167 133.17896486571408 L168 130.95450277700442 L169 129.0020444377953 L170 127.32928152980918 L171 125.94280387861475 L172 124.84807349310312 L173 124.0494030479819 L174 123.54993889405495 L175 123.35164866321824 L176 123.45531351700214 L177 123.86052506919678 L178 124.56568699468363 L179 125.56802131813551 L180 126.86357935781074 L181 128.44725728132835 L182 130.31281621214276 L183 132.4529068075089 L184 134.85909821111295 L185 137.52191126631 L186 140.4308558591265 L187 143.57447224391404 L188 146.940376188854 L189 150.51530776346124 L190 154.28518357589112 L191 158.2351522542601 L192 162.3496529534136 L193 166.61247665665226 L194 171.00683003092203 L195 175.51540158391006 L196 180.12042986242042 L197 184.80377342336575 L198 189.54698230172266 L199 194.33137069390585 L200 199.13809057022345 L201 203.94820592642108 L202 208.74276738179987 L203 213.5028868300312 L204 218.2098118485811 L205 222.84499957361106 L206 227.3901897493251 L207 231.8274766639868 L208 236.1393796892142 L209 240.30891214466564 L210 244.31964821682482 L211 248.15578766825735 L212 251.80221808242112 L213 255.24457439881473 L214 258.4692955039287 L215 261.4636776550576 L216 264.2159245265132 L217 266.7151936810809 L218 268.95163928364644 L219 270.916450888722 L220 272.6018881490708 L221 274.0013113086942 L222 275.1092073600558 L223 275.9212117624954 L224 276.4341256362748 L225 276.645928364519 L226 276.5557855534072 L227 276.16405231925546 L228 275.47227188954093 L229 274.48316952337944 L230 273.2006417754061 L231 271.629741145354 L232 269.77665617380364 L233 267.64868706251576 L234 265.2542169153911 L235 262.6026787133521 L236 259.70451815324947 L237 256.5711524971887 L238 253.21492559438926 L239 249.64905925276707 L240 245.8876011518111 L241 241.9453695019505 L242 237.83789466842694 L243 233.58135798964258 L244 229.19252803100807 L245 224.68869452541972 L246 220.08760026060332 L247 215.4073711816556 L248 210.6664449841423 L249 205.8834984790605 L250 201.07737401580837 L251 196.26700525301908 L252 191.47134256968283 L253 186.70927841040037 L254 181.999572858867 L255 177.36077973279123 L256 172.8111734913946 L257 168.36867724344154 L258 164.05079213940795 L259 159.87452842594925 L260 155.85633843427706 L261 152.0120517664344 L262 148.35681293480644 L263 144.90502170052898 L264 141.67027634583596 L265 138.66532010382068 L266 135.90199095665122 L267 133.39117500000896 L268 131.14276355747018 L269 129.16561421377787 L270 127.46751592051386 L271 126.05515831163503 L272 124.93410534975585 L273 124.10877340699744 L274 123.58241386675247 L275 123.35710031490694 L276 123.43372037097811 L277 123.81197219135016 L278 124.49036565838279 L279 125.46622825070831 L280 126.73571557159146 L281 128.29382649387532 L282 130.13442286185034 L283 132.25025367243086 L284 134.6329836403786 L285 137.27322603503913 L286 140.16057965923343 L287 143.28366982462552 L288 146.6301931621445 L289 150.18696609093135 L290 153.9399767548668 L291 157.87444022207936 L292 161.97485672997175 L293 166.2250727463149 L294 170.60834460585724 L295 175.1074044717545 L296 179.7045283619663 L297 184.38160597262998 L298 189.12021202334358 L299 193.9016788432958 L300 198.70716991228667 L301 203.51775406693076 L302 208.31448007970448 L303 213.0784513170361 L304 217.79090018232358 L305 222.43326205061297 L306 226.98724840367404 L307 231.43491887735496 L308 235.75875193739148 L309 239.9417139052405 L310 243.96732606201326 L311 247.81972956615283 L312 251.4837479291139 L313 254.94494680292203 L314 258.18969084408235 L315 261.20519742981884 L316 263.9795870150351 L317 266.5019299316123 L318 268.76228944568027 L319 270.7517609032387 L320 272.4625068099144 L321 273.88778770665823 L322 275.021988719748 L323 275.8606416805027 L324 276.4004427275696 L325 276.63926532243875 L326 276.5761686269109 L327 276.2114012095163 L328 275.54640006628256 L329 274.58378495970896 L330 273.3273480982502 L331 271.7820391969646 L332 269.9539459781831 L333 267.85027018901366 L334 265.47929923016164 L335 262.8503735078331 L336 259.97384963733833 L337 256.8610596433531 L338 253.52426631757027 L339 249.97661490960687 L340 246.23208134148092 L341 242.3054171496666 L342 238.21209137162703 L343 233.96822960576256 L344 229.59055048484538 L345 225.0962998132061 L346 220.50318262713304 L347 215.8292934461352 L348 211.09304498984113 L349 206.3130956413532 L350 201.5082759428139 L351 196.69751441275469 L352 191.8997629774665 L353 187.1339223101587 L354 182.41876737202597 L355 177.7728734485573 L356 173.2145429724644 L357 168.76173342150935 L358 164.43198657527816 L359 160.24235940958962 L360 156.2093569007844 L361 152.34886700460555 L362 148.6760980658244 L363 145.2055189051834 L364 141.95080181968387 L365 138.92476872076716 L366 136.13934062257806 L367 133.6054906792993 L368 131.33320095656836 L369 129.33142310727203 L370 127.6080431066379 L371 126.1698501855476 L372 125.02251008445892 L373 124.17054273330213 L374 123.6173044452806 L375 123.36497469472303 L376 123.41454753107544 L377 123.76582766285752 L378 124.41743122701065 L379 125.36679124060669 L380 126.61016771344048 L381 128.14266238166772 L382 129.95823800444578 L383 132.04974214755714 L384 134.40893536032212 L385 137.02652363479703 L386 139.89219501938555 L387 142.99466024262472 L388 146.32169718710838 L389 149.8601990383446 L390 153.59622591886313 L391 157.51505980416405 L392 161.60126250416485 L393 165.8387364817295 L394 170.21078826868612 L395 174.700194229506 L396 179.28926841356957 L397 183.959932228717 L398 188.6937856616022 L399 193.47217976428323 " stroke = "blue" stroke-width = "4" fill = "none" /></svg>